<?xml version="1.0" encoding="iso-8859-1"?>
<!-- Generator: Adobe Illustrator 18.0.0, SVG Export Plug-In . SVG Version: 6.00 Build 0)  -->
<!DOCTYPE svg [
	<!ENTITY ns_flows "http://ns.adobe.com/Flows/1.0/">
	<!ENTITY ns_extend "http://ns.adobe.com/Extensibility/1.0/">
	<!ENTITY ns_ai "http://ns.adobe.com/AdobeIllustrator/10.0/">
	<!ENTITY ns_graphs "http://ns.adobe.com/Graphs/1.0/">
	<!ENTITY ns_vars "http://ns.adobe.com/Variables/1.0/">
	<!ENTITY ns_imrep "http://ns.adobe.com/ImageReplacement/1.0/">
	<!ENTITY ns_sfw "http://ns.adobe.com/SaveForWeb/1.0/">
	<!ENTITY ns_custom "http://ns.adobe.com/GenericCustomNamespace/1.0/">
	<!ENTITY ns_adobe_xpath "http://ns.adobe.com/XPath/1.0/">
]>
<svg version="1.2" baseProfile="tiny" id="Calque_1" xmlns:x="&ns_extend;" xmlns:i="&ns_ai;" xmlns:graph="&ns_graphs;"
	 xmlns="http://www.w3.org/2000/svg" xmlns:xlink="http://www.w3.org/1999/xlink" xmlns:a="http://ns.adobe.com/AdobeSVGViewerExtensions/3.0/"
	 x="0px" y="0px" viewBox="0 0 500 244.8" xml:space="preserve">
<metadata>
	<sfw  xmlns="&ns_sfw;">
		<slices></slices>
		<sliceSourceBounds  height="206.1" width="426.9" x="36.5" y="-348" bottomLeftOrigin="true"></sliceSourceBounds>
	</sfw>
</metadata>
<path fill="none" stroke="#08526B" stroke-width="4" stroke-miterlimit="10" d="M92.8,85.1c-0.1,16.3,0,38.6,0.7,65.1
	c0.6,20.8-0.3,27.4,3.8,34.4c10.3,17.8,36.7,17.9,59.1,17.4c57.6-1.1,100.8-6.2,124.6-8.5c64.5-6.4,105.5-5.3,116.1-4.9
	c27.7,0.9,50.5,3.4,66.1,5.4"/>
<path fill="#E50676" d="M95.6,41.4c5,15.1,3.8,29.5-2.6,32.1s-15.6-7.6-20.6-22.8c-5-15.1-3.8-29.5,2.6-32.1S90.7,26.3,95.6,41.4z"
	/>
<path fill="#382870" d="M64.8,59.3c14.3,3.1,24.8,11.6,23.4,19s-13.9,10.9-28.2,7.8c-14.3-3.1-24.8-11.6-23.4-19
	C37.9,59.7,50.6,56.2,64.8,59.3z"/>
<path fill="#195C8F" d="M120.3,109c5,15.1,3.8,29.5-2.6,32.1c-6.4,2.6-15.6-7.6-20.6-22.8c-5-15.1-3.8-29.5,2.6-32.1
	C106.1,83.6,115.3,93.8,120.3,109z"/>
<path fill="#EC6E1B" d="M132.4,72.8c14.3,3.1,24.8,11.6,23.4,19c-1.3,7.4-13.9,10.9-28.2,7.8c-14.3-3.1-24.8-11.6-23.4-19
	C105.5,73.3,118.1,69.8,132.4,72.8z"/>
<path fill="#2E8435" d="M83.1,117.8c-9.5,12.2-21.4,18-26.6,13c-5.1-5-1.6-18.8,8-31s21.4-18,26.6-13
	C96.2,91.7,92.6,105.6,83.1,117.8z"/>
<path fill="#725644" d="M126.5,61.2c-9,12.7-20.6,19.2-25.9,14.5s-2.4-18.7,6.5-31.4s20.6-19.2,25.9-14.5
	C138.4,34.4,135.4,48.5,126.5,61.2z"/>
<g>
	<path fill="#08526B" d="M143.1,118.3h14.5c1.8,0,3.5,0.3,5.1,0.8c1.6,0.5,2.9,1.3,4,2.3c1.1,1,2,2.3,2.7,3.9c0.7,1.6,1,3.5,1,5.6
		c0,2.9-0.7,5.3-2,7.1c-1.3,1.8-3.1,3.2-5.2,4.1v0.1c1.3,0.1,2.4,0.5,3.5,1.2c1.1,0.7,2.1,1.6,2.9,2.7c0.8,1.1,1.4,2.4,1.9,3.9
		c0.5,1.5,0.7,3.1,0.7,4.8c0,2.3-0.4,4.3-1.2,6.1c-0.8,1.7-1.8,3.2-3.2,4.4c-1.3,1.2-2.9,2.1-4.7,2.7c-1.8,0.6-3.7,0.9-5.7,0.9
		h-14.4V118.3z M148.8,139.4h7.7c1.1,0,2.1-0.1,3-0.4c0.9-0.3,1.8-0.7,2.5-1.3c0.7-0.6,1.3-1.4,1.7-2.4c0.4-1,0.6-2.1,0.6-3.5
		c0-2-0.5-3.8-1.6-5.2c-1.1-1.5-2.7-2.2-5-2.2h-8.9V139.4z M148.8,163.1h8.3c0.9,0,1.8-0.1,2.9-0.3c1-0.2,2-0.6,2.9-1.3
		c0.9-0.6,1.7-1.5,2.3-2.6c0.6-1.1,0.9-2.6,0.9-4.4c0-3-0.8-5.3-2.4-6.8c-1.6-1.5-3.8-2.3-6.6-2.3h-8.4V163.1z"/>
	<path fill="#08526B" d="M183.7,118.3h27v6.5h-21.3v15.1h19.9v6.5h-19.9v16.3h22.4v6.5h-28.1V118.3z"/>
	<path fill="#08526B" d="M223.1,118.3h5.7v44.4H248v6.5h-24.9V118.3z"/>
	<path fill="#08526B" d="M257.1,118.3h5.7v44.4H282v6.5h-24.9V118.3z"/>
	<path fill="#08526B" d="M291.1,118.3h27v6.5h-21.3v15.1h19.9v6.5h-19.9v16.3h22.4v6.5h-28.1V118.3z"/>
	<path fill="#08526B" d="M330.6,118.3h14.7c2.7,0,4.9,0.4,6.6,1.3c1.7,0.9,3.1,2,4.1,3.4c1,1.4,1.7,2.9,2.1,4.6
		c0.4,1.7,0.6,3.3,0.6,4.9c0,1.6-0.2,3.2-0.7,4.7s-1.2,2.9-2,4.1c-0.9,1.2-2,2.3-3.3,3.1c-1.3,0.8-2.7,1.4-4.3,1.5l11.9,23.2h-7.1
		l-10.6-22.4h-6.3v22.4h-5.7V118.3z M336.3,140.7h7.5c1.1,0,2.2-0.1,3.3-0.3c1.1-0.2,2-0.6,2.9-1.2c0.8-0.6,1.5-1.4,2-2.5
		c0.5-1.1,0.8-2.5,0.8-4.2c0-1.7-0.3-3.1-0.8-4.2c-0.5-1.1-1.2-1.9-2-2.5c-0.8-0.6-1.8-1-2.9-1.2c-1.1-0.2-2.2-0.3-3.3-0.3h-7.5
		V140.7z"/>
	<path fill="#08526B" d="M370,118.3h5.7v50.8H370V118.3z"/>
	<path fill="#08526B" d="M384,118.3h6.6l12.3,41.4h0.1l12.8-41.4h6.2l-16.5,50.8h-5.3L384,118.3z"/>
	<path fill="#08526B" d="M430.3,118.3h27v6.5H436v15.1h19.9v6.5H436v16.3h22.4v6.5h-28.1V118.3z"/>
</g>
<path fill="#FFFFFF" stroke="#0C526B" stroke-width="0.5" stroke-miterlimit="10" d="M116.9,83c-0.2,12.8-9.8,23-21.4,22.8
	S74.8,94.9,75,82c0.2-12.8,9.8-23,21.4-22.8S117.1,70.1,116.9,83z"/>
<g>
	<path fill="#0C526B" d="M92.7,92.3c1.4,1.3,2.7,2.6,4.1,3.9l0.2-8.5l1.8,0c1.6,2.3,3.3,4.6,4.9,6.8c1,0.3,1.9,0.5,2.9,0.8
		c-1.7-2.6-3.4-5.2-5-7.8c0.6-0.1,1.1-0.4,1.5-0.6c0.5-0.3,0.9-0.6,1.2-1c0.3-0.4,0.6-0.8,0.8-1.3c0.2-0.5,0.3-1,0.3-1.6
		c0-0.7-0.1-1.3-0.3-1.9c-0.2-0.6-0.6-1.1-1-1.5c-0.5-0.4-1-0.8-1.7-1c-0.7-0.3-1.5-0.4-2.4-0.4c-1.4,0-2.8-0.1-4.3-0.1
		c0.2,2.2,0.1,5.5-0.9,9.2C94.1,89.3,93.4,91,92.7,92.3z M97.1,79.2l2.3,0.1c0.5,0,0.9,0.1,1.3,0.3c0.4,0.2,0.7,0.5,1,0.8
		c0.3,0.3,0.5,0.7,0.6,1.2c0.1,0.5,0.2,1,0.2,1.5c0,0.6-0.1,1.1-0.3,1.6c-0.2,0.5-0.5,0.9-0.9,1.2c-0.4,0.3-0.8,0.6-1.3,0.7
		c-0.5,0.2-1,0.2-1.6,0.2l-1.5,0L97.1,79.2z"/>
</g>
<g>
	<path fill="#0C526B" d="M97,68.8c-0.9-0.1-3.1-0.2-5.4-0.1c-0.6,0-1.5,0.1-2.3,0.6c-0.5,0.3-0.8,0.8-0.9,0.9
		c-0.4,0.6-0.6,1.1-0.7,1.5c-0.1,0.2-0.3,1.1-0.1,2.4c0.1,0.7,0.3,1.2,0.5,1.8c0.2,0.6,0.5,1.1,0.6,1.4l0,0.1
		c-0.5,0.1-1,0.2-1.5,0.5c-0.4,0.2-0.8,0.5-1.1,0.9c-0.3,0.4-0.6,0.8-0.7,1.3c-0.2,0.5-0.3,1-0.3,1.7c0,0.7,0.1,1.3,0.3,1.9
		s0.6,1.1,1,1.6c0.5,0.4,1,0.8,1.7,1.1c0.7,0.3,1.4,0.4,2.2,0.4c2.1,0.1,4.2,0.1,6.3,0.2C96.8,80.9,96.9,74.9,97,68.8z M95.1,76.9
		l-3.3-0.1c-0.5,0-1-0.1-1.4-0.3c-0.4-0.2-0.7-0.4-1-0.7c-0.3-0.3-0.5-0.7-0.6-1.1c-0.1-0.4-0.2-0.9-0.2-1.4c0-0.5,0.1-1,0.3-1.4
		c0.2-0.4,0.4-0.8,0.8-1.1c0.4-0.3,0.8-0.5,1.4-0.7c0.6-0.2,1.2-0.2,2-0.2l2.1,0L95.1,76.9z M95,85.5l-2.8-0.1
		c-0.8,0-1.4-0.1-1.9-0.3c-0.5-0.2-1-0.4-1.3-0.7c-0.4-0.3-0.6-0.7-0.8-1.1c-0.2-0.4-0.2-0.9-0.2-1.4c0-0.6,0.1-1.1,0.3-1.6
		c0.2-0.5,0.4-0.9,0.8-1.3c0.4-0.4,0.8-0.6,1.4-0.8c0.6-0.2,1.3-0.3,2.1-0.3l2.7,0.1L95,85.5z"/>
</g>
<path fill="none" stroke="#08526B" stroke-miterlimit="10" d="M167.9,35.4"/>
<g>
	<path fill="#08526B" d="M287.6,213.4h7.8v1.1l-6.3,8.4h6.4v1.2h-8.1v-1.1l6.3-8.4h-6.1V213.4z"/>
	<path fill="#08526B" d="M302.3,213.2c1.4,0,2.5,0.5,3.3,1.5c0.8,1,1.2,2.4,1.2,4.1c0,1.7-0.4,3-1.2,4.1c-0.8,1-1.9,1.5-3.3,1.5
		c-1.4,0-2.5-0.5-3.3-1.5c-0.8-1-1.3-2.4-1.3-4.1c0-1.7,0.4-3.1,1.3-4.1C299.8,213.7,300.9,213.2,302.3,213.2z M302.3,214.4
		c-1,0-1.7,0.4-2.3,1.2c-0.6,0.8-0.9,1.9-0.9,3.2c0,1.4,0.3,2.4,0.9,3.2c0.6,0.8,1.3,1.2,2.3,1.2c1,0,1.7-0.4,2.3-1.2
		c0.6-0.8,0.9-1.9,0.9-3.2c0-1.4-0.3-2.4-0.9-3.2C304,214.8,303.2,214.4,302.3,214.4z"/>
	<path fill="#08526B" d="M309.7,213.4h1.8l4.4,9v-9h1.3v10.8h-1.8l-4.4-9v9h-1.3V213.4z"/>
	<path fill="#08526B" d="M320.7,213.4h6.3v1.2H322v3.2h4.7v1.2H322v3.9h5.1v1.2h-6.4V213.4z"/>
	<path fill="#08526B" d="M336,213.8v1.4c-0.5-0.3-1-0.5-1.4-0.6c-0.5-0.1-0.9-0.2-1.3-0.2c-0.7,0-1.3,0.2-1.7,0.5
		c-0.4,0.3-0.6,0.7-0.6,1.3c0,0.5,0.1,0.8,0.4,1.1c0.3,0.2,0.8,0.4,1.5,0.6l0.8,0.2c1,0.2,1.7,0.6,2.2,1.1c0.5,0.5,0.7,1.2,0.7,2.1
		c0,1-0.3,1.8-1,2.4c-0.6,0.5-1.6,0.8-2.8,0.8c-0.5,0-1-0.1-1.5-0.2c-0.5-0.1-1.1-0.3-1.6-0.5v-1.5c0.5,0.3,1.1,0.6,1.6,0.7
		c0.5,0.2,1,0.3,1.5,0.3c0.8,0,1.4-0.2,1.8-0.5c0.4-0.3,0.6-0.8,0.6-1.4c0-0.5-0.1-0.9-0.4-1.2c-0.3-0.3-0.8-0.5-1.5-0.7l-0.8-0.2
		c-1-0.2-1.7-0.6-2.2-1c-0.4-0.5-0.7-1.1-0.7-1.9c0-1,0.3-1.7,0.9-2.2c0.6-0.5,1.5-0.8,2.6-0.8c0.5,0,0.9,0,1.4,0.1
		C335,213.4,335.5,213.6,336,213.8z"/>
	<path fill="#08526B" d="M344.5,213.4h2.8c1.9,0,3.3,0.4,4.2,1.3c0.9,0.9,1.3,2.2,1.3,4.1c0,1.9-0.5,3.2-1.4,4.1
		c-0.9,0.9-2.3,1.3-4.2,1.3h-2.8V213.4z M345.9,214.6v8.4h1.6c1.4,0,2.4-0.3,3-1c0.6-0.7,1-1.7,1-3.2c0-1.4-0.3-2.5-1-3.2
		c-0.6-0.7-1.6-1-3-1H345.9z"/>
	<path fill="#08526B" d="M356.2,213.4h1.4v1.1l-1.1,2.3h-0.9l0.5-2.3V213.4z"/>
	<path fill="#08526B" d="M363.4,213.4h1.5l3.8,10.8h-1.4l-0.9-2.8H362l-0.9,2.8h-1.4L363.4,213.4z M364.2,214.8l-1.8,5.4h3.7
		L364.2,214.8z"/>
	<path fill="#08526B" d="M368.5,213.4h8.4v1.2h-3.5v9.5H372v-9.5h-3.5V213.4z"/>
	<path fill="#08526B" d="M377.4,213.4h8.4v1.2h-3.5v9.5h-1.4v-9.5h-3.5V213.4z"/>
	<path fill="#08526B" d="M392.5,219.1c0.3,0.1,0.6,0.3,0.8,0.7c0.3,0.3,0.5,0.8,0.8,1.4l1.4,2.9h-1.4l-1.3-2.8
		c-0.3-0.7-0.6-1.2-1-1.4c-0.3-0.2-0.7-0.4-1.3-0.4h-1.5v4.5h-1.3v-10.8h3c1.1,0,2,0.3,2.5,0.8c0.6,0.5,0.8,1.3,0.8,2.3
		c0,0.7-0.1,1.2-0.4,1.7S393.1,218.9,392.5,219.1z M389.2,214.6v3.8h1.7c0.6,0,1.1-0.2,1.5-0.5c0.3-0.3,0.5-0.8,0.5-1.4
		c0-0.6-0.2-1.1-0.5-1.4c-0.3-0.3-0.8-0.5-1.5-0.5H389.2z"/>
	<path fill="#08526B" d="M400,213.4h1.5l3.8,10.8H404l-0.9-2.8h-4.5l-0.9,2.8h-1.4L400,213.4z M400.8,214.8l-1.8,5.4h3.7
		L400.8,214.8z"/>
	<path fill="#08526B" d="M414.8,214.2v1.5c-0.5-0.5-0.9-0.8-1.4-1c-0.5-0.2-1.1-0.3-1.6-0.3c-1.1,0-2,0.4-2.6,1.1
		c-0.6,0.8-0.9,1.8-0.9,3.3c0,1.4,0.3,2.5,0.9,3.3c0.6,0.8,1.5,1.1,2.6,1.1c0.6,0,1.1-0.1,1.6-0.3c0.5-0.2,1-0.6,1.4-1v1.5
		c-0.5,0.3-1,0.6-1.5,0.8c-0.5,0.2-1.1,0.3-1.7,0.3c-1.5,0-2.7-0.5-3.6-1.5c-0.9-1-1.3-2.4-1.3-4.1c0-1.7,0.4-3.1,1.3-4.1
		c0.9-1,2-1.5,3.6-1.5c0.6,0,1.2,0.1,1.7,0.3C413.8,213.6,414.3,213.9,414.8,214.2z"/>
	<path fill="#08526B" d="M416.2,213.4h8.4v1.2h-3.5v9.5h-1.4v-9.5h-3.5V213.4z"/>
	<path fill="#08526B" d="M426.7,213.4h1.3v10.8h-1.3V213.4z"/>
	<path fill="#08526B" d="M434,224.2l-3.8-10.8h1.4l3.1,9.1l3.2-9.1h1.4l-3.8,10.8H434z"/>
	<path fill="#08526B" d="M441.5,213.4h1.3v10.8h-1.3V213.4z"/>
	<path fill="#08526B" d="M444.9,213.4h8.4v1.2h-3.5v9.5h-1.4v-9.5h-3.5V213.4z"/>
	<path fill="#08526B" d="M455.4,213.4h6.3v1.2h-4.9v3.2h4.7v1.2h-4.7v3.9h5.1v1.2h-6.4V213.4z M458.9,210.5h1.2l-1.5,1.9h-1
		L458.9,210.5z"/>
</g>
</svg>
